# xmcd
#
# Track frame offsets: 
#        150
#        22010
#        42155
#        58832
#        76032
#        98885
#        119185
#        138487
#        158342
#        180295
#        201682
#        224612
#        247165
#        260320
#        281062
#        303975
#
# Disc length: 4344 seconds
#
# Revision: 4
# Processed by: cddbd v1.5.2PL0 Copyright (c) Steve Scherf et al.
# Submitted via: ExactAudioCopyFreeDBPlugin 1.0
#
DISCID=ed10f610
DTITLE=スターダスト・レビュー - LOVE SONGS
DYEAR=2002
DGENRE=J-POP
TTITLE0=夜更けのリフ～midnight riff
TTITLE1=Stay My Blue-君が恋しくて-
TTITLE2=瞳の中の天国
TTITLE3=Be My Lady
TTITLE4=追憶
TTITLE5=夢伝説
TTITLE6=Endless Dream
TTITLE7=季節を越えて
TTITLE8=木蘭の涙
TTITLE9=もう一度抱きしめて
TTITLE10=コバルト色の午後
TTITLE11=君のすべてが悲しい
TTITLE12=上を向いて歩こう
TTITLE13=1%の物語
TTITLE14=追憶(オリジナル・カラオケ)
TTITLE15=木蘭の涙(オリジナル・カラオケ)
EXTD=YEAR: 2002
EXTT0=
EXTT1=
EXTT2=
EXTT3=
EXTT4=
EXTT5=
EXTT6=
EXTT7=
EXTT8=
EXTT9=
EXTT10=
EXTT11=
EXTT12=
EXTT13=
EXTT14=
EXTT15=
PLAYORDER=
